<?xml version="1.0" standalone="no"?>
<!DOCTYPE svg PUBLIC "-//W3C//DTD SVG 1.1//EN" "http://www.w3.org/Graphics/SVG/1.1/DTD/svg11.dtd">
<svg class="icon" viewBox="0 0 1024 1024" version="1.1"
     xmlns="http://www.w3.org/2000/svg" width="512" height="512">
    <path d="M512.4 0c282.8 0 512 229.2 512 512s-229.2 512-512 512S0.4 794.8 0.4 512 229.7 0 512.4 0z" fill="#3E5BF2"
          data-spm-anchor-id="a313x.7781069.0.i0"></path>
    <path d="M512.4 184.9c-180.6 0-327.1 146.4-327.1 327.1 0 57.4 14.8 111.4 40.8 158.3l-40.8 168.8L356 799.3c46.5 25.4 99.8 39.8 156.5 39.8 180.6 0 327.1-146.4 327.1-327.1-0.1-180.7-146.5-327.1-327.2-327.1z m123.4 394.2c-12.7 56.6-55.4 81.5-104.1 90.4L512 735H412l19.4-64.6c-47.1-5.8-83.6-17.1-83.6-17.1l23.7-81.1c222.4 74.7 202.3-87.5 202.3-87.5s73.5 21.5 62 94.4z m17.6-128.7c-222.4-74.7-202.3 87.5-202.3 87.5s-73.5-21.5-62-94.4c13.1-58.5 58.2-83.1 108.9-91.3l19-63.3h100l-19.1 63.8c45 5.9 79.2 16.6 79.2 16.6l-23.7 81.1z"
          fill="#ffffff" data-spm-anchor-id="a313x.7781069.0.i1"></path>
</svg>